<?xml version="1.0" encoding="UTF-8"?>
<!-- Generator: visioncortex VTracer 0.6.5 -->
<svg version="1.1" xmlns="http://www.w3.org/2000/svg" width="294" height="294">
<path d="M0 0 C0.67 0.15 1.34 0.3 2.02 0.45 C19.76 4.6 37.52 12.96 52 24 C52.86 24.64 53.71 25.27 54.59 25.93 C85.95 50.37 105.51 84.4 111.25 123.69 C115.7 161.44 106.31 200.69 83 231 C79.17 235.82 75.14 240.45 71 245 C70.4 245.67 69.8 246.35 69.18 247.04 C44.31 273.42 6.97 287.83 -28.73 289.28 C-66.98 290.21 -101.96 277.9 -131 253 C-131.43 252.64 -131.43 252.64 -133.59 250.82 C-139.83 245.42 -144.99 239.53 -150 233 C-150.67 232.15 -151.34 231.3 -152.02 230.42 C-175.98 198.84 -184.59 159.38 -179.43 120.4 C-174.67 88.79 -159.38 60.5 -137 38 C-136.52 37.51 -136.04 37.03 -135.54 36.53 C-127.8 28.83 -119.33 22.64 -110 17 C-109.36 16.61 -108.72 16.22 -108.06 15.82 C-75.57 -3.56 -36.61 -8.21 0 0 Z " fill="#540152" transform="translate(181,4)"/>
<path d="M0 0 C2.62 0.38 2.62 0.38 5 1 C5.67 2.72 5.67 2.72 6 5 C4.97 7.12 4.97 7.12 3.34 9.43 C2.74 10.3 2.14 11.16 1.52 12.05 C0.85 12.99 0.19 13.92 -0.5 14.88 C-1.9 16.87 -3.29 18.87 -4.69 20.87 C-5.41 21.89 -6.13 22.91 -6.87 23.96 C-10.13 28.61 -13.31 33.3 -16.5 38 C-17.75 39.83 -19 41.67 -20.25 43.5 C-20.87 44.41 -21.49 45.31 -22.12 46.25 C-27.75 54.5 -27.75 54.5 -29.63 57.25 C-30.87 59.08 -32.12 60.9 -33.36 62.73 C-36.57 67.44 -39.78 72.15 -43 76.85 C-43.33 77.33 -43.33 77.33 -45 79.78 C-46.24 81.6 -47.48 83.42 -48.73 85.24 C-53.2 91.8 -57.6 98.4 -62 105 C-41.21 105.33 -20.42 105.66 1 106 C-2.01 112.01 -2.01 112.01 -4 114 C-6.93 114.49 -6.93 114.49 -10.55 114.47 C-10.88 114.47 -10.88 114.47 -12.55 114.48 C-14.73 114.48 -16.92 114.45 -19.1 114.43 C-20.61 114.42 -22.13 114.42 -23.64 114.42 C-26.82 114.41 -29.99 114.39 -33.17 114.36 C-37.24 114.32 -41.32 114.3 -45.39 114.29 C-49.27 114.28 -53.15 114.26 -57.04 114.24 C-57.41 114.24 -57.41 114.24 -59.29 114.23 C-61.38 114.22 -63.48 114.2 -65.58 114.18 C-66.77 114.17 -67.97 114.16 -69.2 114.15 C-72 114 -72 114 -74 113 C-73.78 105.98 -70.53 101.83 -66.44 96.31 C-65.23 94.64 -64.02 92.97 -62.81 91.3 C-62.5 90.87 -62.5 90.87 -60.93 88.71 C-58.2 84.88 -55.61 80.96 -53.02 77.05 C-49.7 72.04 -46.32 67.09 -42.94 62.12 C-42.2 61.04 -41.47 59.96 -40.71 58.85 C-35.37 51.01 -30.04 43.18 -24.69 35.35 C-21.64 30.88 -18.59 26.39 -15.55 21.9 C-13.98 19.58 -12.41 17.26 -10.84 14.95 C-9.71 13.28 -8.58 11.61 -7.46 9.95 C-6.77 8.94 -6.09 7.93 -5.39 6.89 C-4.78 5.99 -4.17 5.1 -3.55 4.17 C-2 2 -2 2 0 0 Z " fill="#EDE8ED" transform="translate(168,43)"/>
<path d="M0 0 C2.36 0.33 2.36 0.33 3.36 1.33 C3.88 3.99 3.67 5.76 2.36 8.14 C0.91 10.27 -0.6 12.33 -2.14 14.39 C-3.26 15.93 -4.38 17.47 -5.5 19.01 C-6.05 19.75 -6.59 20.5 -7.15 21.27 C-8.99 23.81 -10.74 26.4 -12.46 29.02 C-16.24 34.74 -20.09 40.41 -23.96 46.08 C-24.55 46.95 -25.14 47.82 -25.75 48.71 C-31.36 56.93 -37.01 65.13 -42.64 73.33 C-28.45 73.66 -14.26 73.99 0.36 74.33 C-1.64 79.33 -1.64 79.33 -3.64 82.33 C-5.94 82.69 -5.94 82.69 -8.83 82.67 C-9.37 82.67 -9.37 82.67 -12.1 82.67 C-13.28 82.65 -14.45 82.64 -15.65 82.62 C-16.85 82.62 -18.04 82.61 -19.28 82.61 C-23.11 82.59 -26.94 82.55 -30.77 82.52 C-33.36 82.5 -35.95 82.49 -38.55 82.48 C-44.91 82.44 -51.28 82.39 -57.64 82.33 C-56.23 79.45 -54.7 76.79 -52.91 74.12 C-52.37 73.3 -51.82 72.48 -51.25 71.63 C-50.96 71.19 -50.96 71.19 -49.46 68.95 C-48.83 68.02 -48.21 67.09 -47.57 66.14 C-41.96 57.76 -36.28 49.43 -30.59 41.11 C-27.78 36.99 -24.97 32.86 -22.16 28.74 C-21.79 28.18 -21.41 27.62 -21.02 27.05 C-19.19 24.36 -17.37 21.67 -15.54 18.98 C-14.22 17.03 -12.89 15.08 -11.55 13.14 C-10.26 11.24 -9 9.32 -7.77 7.37 C-7.17 6.46 -6.57 5.54 -5.96 4.59 C-5.44 3.77 -4.92 2.95 -4.38 2.1 C-2.64 0.33 -2.64 0.33 0 0 Z " fill="#ECE8ED" transform="translate(178.64453125,59.6708984375)"/>
<path d="M0 0 C1.65 0.33 3.3 0.66 5 1 C5.24 4.8 4.89 6.78 2.68 9.87 C2.43 10.23 2.43 10.23 1.14 12.08 C0.58 12.85 0.02 13.63 -0.56 14.44 C-1.76 16.15 -2.97 17.86 -4.17 19.57 C-4.8 20.46 -5.43 21.35 -6.08 22.27 C-9.23 26.75 -12.3 31.28 -15.38 35.81 C-16.64 37.67 -17.91 39.53 -19.18 41.39 C-19.5 41.86 -19.5 41.86 -21.09 44.2 C-22.98 46.97 -24.87 49.74 -26.76 52.51 C-27.38 53.42 -27.99 54.33 -28.63 55.26 C-29.87 57.08 -31.11 58.9 -32.35 60.71 C-35.62 65.5 -38.88 70.3 -42.14 75.1 C-42.48 75.6 -42.48 75.6 -44.19 78.12 C-45.49 80.03 -46.78 81.94 -48.08 83.86 C-50.92 88.03 -53.75 92.13 -57 96 C-58.65 95.67 -60.3 95.34 -62 95 C-62.86 92.63 -63.22 91.49 -62.16 89.15 C-61.7 88.52 -61.25 87.88 -60.78 87.23 C-60.27 86.5 -59.76 85.77 -59.23 85.01 C-58.66 84.22 -58.09 83.44 -57.5 82.62 C-56.29 80.91 -55.08 79.19 -53.87 77.46 C-53.23 76.57 -52.59 75.67 -51.94 74.75 C-48.78 70.26 -45.7 65.72 -42.62 61.19 C-41.36 59.33 -40.09 57.47 -38.82 55.61 C-38.19 54.68 -37.56 53.75 -36.91 52.8 C-35.02 50.03 -33.13 47.26 -31.24 44.49 C-30.62 43.58 -30.01 42.67 -29.37 41.74 C-28.13 39.92 -26.89 38.1 -25.65 36.29 C-22.39 31.51 -19.14 26.73 -15.9 21.94 C-15.22 20.94 -14.55 19.95 -13.86 18.93 C-12.57 17.03 -11.29 15.13 -10.01 13.23 C-6.87 8.61 -3.67 4.21 0 0 Z " fill="#EFECEF" transform="translate(195,155)"/>
<path d="M0 0 C0.99 0.16 0.99 0.16 6 1 C6.65 4.75 5.72 6.77 3.66 9.79 C2.62 11.22 1.56 12.64 0.5 14.06 C-0.62 15.6 -1.74 17.14 -2.86 18.68 C-3.4 19.43 -3.95 20.17 -4.51 20.94 C-6.35 23.48 -8.09 26.07 -9.81 28.69 C-15.44 37.21 -21.23 45.63 -26.99 54.06 C-29.61 57.9 -32.23 61.74 -34.85 65.58 C-36.11 67.43 -37.37 69.28 -38.63 71.12 C-41.53 75.36 -44.41 79.6 -47.21 83.9 C-47.71 84.65 -48.2 85.4 -48.71 86.17 C-49.62 87.55 -50.53 88.94 -51.41 90.34 C-53.28 93.14 -54.5 94.81 -57.68 96.04 C-60 96 -60 96 -62 94 C-61.8 89.33 -59.28 86.22 -56.56 82.62 C-55.64 81.37 -54.72 80.11 -53.8 78.85 C-53.33 78.21 -52.86 77.57 -52.37 76.91 C-50.27 73.99 -48.29 71 -46.31 68 C-40.29 58.9 -34.13 49.9 -27.97 40.89 C-26.01 38.01 -24.05 35.14 -22.09 32.26 C-14.75 21.49 -7.4 10.73 0 0 Z " fill="#EFECEF" transform="translate(186,139)"/>
</svg>
